<svg id="Layer_1" data-name="Layer 1" xmlns="http://www.w3.org/2000/svg" viewBox="0 0 591.06 98.22"><defs><style>.cls-1{fill:#001638;}</style></defs><path class="cls-1" d="M327.93,476.49h10.32v50.22H327.93Z" transform="translate(-204.47 -450.89)"/><path class="cls-1" d="M350.28,488.13h10.09v38.58H350.28Zm28-.85a22.4,22.4,0,0,1,6.6.93,14.54,14.54,0,0,1,5.28,2.87,13,13,0,0,1,3.49,4.93,18.45,18.45,0,0,1,1.25,7.11v23.59h-10.1V504.9q0-4.89-2.36-7.18t-7.73-2.29a16.79,16.79,0,0,0-7.29,1.55,15.58,15.58,0,0,0-5.28,3.92,9.31,9.31,0,0,0-2.33,4.93l-.08-4a15.54,15.54,0,0,1,1.79-5.27,17.65,17.65,0,0,1,3.76-4.7,17.9,17.9,0,0,1,5.63-3.38A20.53,20.53,0,0,1,378.3,487.28Z" transform="translate(-204.47 -450.89)"/><path class="cls-1" d="M404.07,488.13h10.1v38.58h-10.1Zm28-.85a22.28,22.28,0,0,1,6.59.93,14.54,14.54,0,0,1,5.28,2.87,13.06,13.06,0,0,1,3.5,4.93,18.64,18.64,0,0,1,1.24,7.11v23.59H438.62V504.9q0-4.89-2.37-7.18t-7.72-2.29a16.8,16.8,0,0,0-7.3,1.55A15.78,15.78,0,0,0,416,500.9a9.31,9.31,0,0,0-2.33,4.93l-.08-4a15.54,15.54,0,0,1,1.79-5.27,17.65,17.65,0,0,1,3.76-4.7,17.9,17.9,0,0,1,5.63-3.38A20.58,20.58,0,0,1,432.1,487.28Z" transform="translate(-204.47 -450.89)"/><path class="cls-1" d="M480.61,527.64a33.07,33.07,0,0,1-12.85-2.32,19.39,19.39,0,0,1-8.65-6.8,18.73,18.73,0,0,1-3.11-11,18.31,18.31,0,0,1,11.76-17.93,33.07,33.07,0,0,1,12.85-2.33,32.48,32.48,0,0,1,12.77,2.33,18.35,18.35,0,0,1,11.68,17.93,18.73,18.73,0,0,1-3.1,11,19.46,19.46,0,0,1-8.58,6.8A32.49,32.49,0,0,1,480.61,527.64Zm0-7.76a17.78,17.78,0,0,0,7.26-1.43,11.32,11.32,0,0,0,6.95-10.91,12.1,12.1,0,0,0-1.87-6.79,11.84,11.84,0,0,0-5-4.31,17.27,17.27,0,0,0-7.3-1.48,17.6,17.6,0,0,0-7.3,1.48,12.18,12.18,0,0,0-5.16,4.27,11.83,11.83,0,0,0-1.9,6.83,11.24,11.24,0,0,0,7,10.91A18.21,18.21,0,0,0,480.61,519.88Z" transform="translate(-204.47 -450.89)"/><path class="cls-1" d="M532.23,520.11h-3.65l14.13-32h11l-18.55,38.58h-9.55l-18.16-38.58h11.1Z" transform="translate(-204.47 -450.89)"/><path class="cls-1" d="M576.63,527.57A21.73,21.73,0,0,1,566.19,525a19.16,19.16,0,0,1-7.45-7.06,21.5,21.5,0,0,1,0-21.15,19.35,19.35,0,0,1,7.57-7,22.83,22.83,0,0,1,10.83-2.52q6.68,0,10.75,2.68a15.4,15.4,0,0,1,5.93,7.26,26.8,26.8,0,0,1,1.87,10.24,23.67,23.67,0,0,1-1.09,6.95,21,21,0,0,1-3.34,6.52,16.33,16.33,0,0,1-5.9,4.81A19.35,19.35,0,0,1,576.63,527.57Zm3.26-7.77a18.56,18.56,0,0,0,7.92-1.55,12.28,12.28,0,0,0,5.08-17.5,11.33,11.33,0,0,0-5.12-4.19,19.59,19.59,0,0,0-7.88-1.44q-6.43,0-10,3.38a11.76,11.76,0,0,0-3.57,9,12,12,0,0,0,1.71,6.48,11.6,11.6,0,0,0,4.77,4.31A15.44,15.44,0,0,0,579.89,519.8Zm14.83-31.67h10.09v38.58h-9.39c-.26-2-.44-3.8-.55-5.35s-.15-3.08-.15-4.58Z" transform="translate(-204.47 -450.89)"/><path class="cls-1" d="M611.25,488.13h30V496h-30Zm9.94-10.55h10.09v49.13H621.19Z" transform="translate(-204.47 -450.89)"/><path class="cls-1" d="M682.28,513.91h9.78a14.05,14.05,0,0,1-3.3,7.06,18,18,0,0,1-7.26,4.89,30.88,30.88,0,0,1-11.18,1.78,33.78,33.78,0,0,1-13-2.36,20.05,20.05,0,0,1-8.85-6.87,18.36,18.36,0,0,1-3.18-10.87,18.88,18.88,0,0,1,3.11-10.91,19.65,19.65,0,0,1,8.65-6.94,32.39,32.39,0,0,1,13-2.41,29.32,29.32,0,0,1,12.66,2.41,15.7,15.7,0,0,1,7.49,7.25q2.45,4.86,2.05,12.39H655.42a11.19,11.19,0,0,0,2.21,5.35,12.33,12.33,0,0,0,5,3.8,18.21,18.21,0,0,0,7.49,1.4,17.21,17.21,0,0,0,8-1.67A8,8,0,0,0,682.28,513.91ZM669.55,495a15.47,15.47,0,0,0-9.08,2.45,11,11,0,0,0-4.51,6H682.2a8.23,8.23,0,0,0-3.69-6.18C676.31,495.73,673.32,495,669.55,495Z" transform="translate(-204.47 -450.89)"/><path class="cls-1" d="M719,520.81a29.69,29.69,0,0,1-11.06-1.9,16.1,16.1,0,0,1-7.41-5.63,15.15,15.15,0,0,1-2.64-9,15.68,15.68,0,0,1,2.56-9,16.53,16.53,0,0,1,7.34-5.9,27.65,27.65,0,0,1,11.21-2.1,26,26,0,0,1,3.46.23c1.11.16,2.21.37,3.3.62l19.48.08v7.61a29.75,29.75,0,0,1-8-1,58.22,58.22,0,0,1-7.18-2.29l-.24-.54a25.76,25.76,0,0,1,5,3.06,15.71,15.71,0,0,1,3.77,4.19,10.44,10.44,0,0,1,1.43,5.48,14.55,14.55,0,0,1-2.56,8.65,16,16,0,0,1-7.26,5.51A29.55,29.55,0,0,1,719,520.81Zm13,21.82v-1.87c0-2.38-.77-4-2.29-5a12,12,0,0,0-6.25-1.39h-12a26.14,26.14,0,0,1-5.86-.55,10.39,10.39,0,0,1-3.77-1.55,6,6,0,0,1-2-2.37,6.94,6.94,0,0,1-.62-2.91,5.59,5.59,0,0,1,2-4.69,11.67,11.67,0,0,1,5.43-2.14,32.45,32.45,0,0,1,7.53-.23l4.89.85a33.39,33.39,0,0,0-7.25.82c-1.58.44-2.37,1.31-2.37,2.6a2.1,2.1,0,0,0,.93,1.82,4.52,4.52,0,0,0,2.64.66h12.65a30.71,30.71,0,0,1,8.89,1.13,10.5,10.5,0,0,1,5.63,3.8,12.32,12.32,0,0,1,1.94,7.34v3.65Zm-13-29.11a14.59,14.59,0,0,0,5.86-1.09,8.79,8.79,0,0,0,3.92-3.14,8.51,8.51,0,0,0,1.4-4.93,8.83,8.83,0,0,0-1.4-5.05,9,9,0,0,0-3.88-3.22A14.18,14.18,0,0,0,719,495a14.58,14.58,0,0,0-5.9,1.13,9,9,0,0,0-4,3.22,8.91,8.91,0,0,0-1.39,5.05,8.58,8.58,0,0,0,1.39,4.93,8.85,8.85,0,0,0,3.92,3.14A14.89,14.89,0,0,0,719,513.52Z" transform="translate(-204.47 -450.89)"/><path class="cls-1" d="M748.33,488.13h10.72l16.69,37-8.7,1.55Zm47.2,0-26.7,54.11H758.35L769.76,521l15-32.84Z" transform="translate(-204.47 -450.89)"/><path class="cls-1" d="M289.62,496.1a34.42,34.42,0,0,0,1.52-4.6,33.46,33.46,0,0,0-24.28-40.61L261.4,472.6A44.51,44.51,0,0,0,220,549.11l19.59-22.82A27.36,27.36,0,1,1,277.84,525a33.42,33.42,0,0,0,21.92-27.81Z" transform="translate(-204.47 -450.89)"/></svg>